# xmcd
#
# Track frame offsets:
#	150
#	13800
#	27352
#	41360
#	55047
#	68675
#	81682
#	94740
#	108135
#	121125
#	132610
#	147190
#	160650
#	172375
#	184307
#	197377
#	210230
#	222772
#	236700
#	251677
#	265125
#	279580
#
# Disc length: 3919 seconds
#
# Revision: 0
# Processed by: cddbd v1.5.1PL2 Copyright (c) Steve Scherf et al.
# Submitted via: dBpowerAMP V4.0
#
DISCID=3e0f4d16
DTITLE=Tampa Red - Tampa Red Vol 11 1939 - 1940
DYEAR=1939
DGENRE=blues
TTITLE0=I'll Try To Forget
TTITLE1=Don't Forget It
TTITLE2=My Two Women
TTITLE3=Sweet Mellow Woman Blues
TTITLE4=Dangerous Woman Blues
TTITLE5=I Don't Care No More
TTITLE6=Anna Lou Blues
TTITLE7=Don't You Lie To Me
TTITLE8=Tired Of Your Reckless Ways
TTITLE9=It Hurts Me Too
TTITLE10=Baby, Take A Chance With Me
TTITLE11=What Am I Going To Do?
TTITLE12=The Way To Get The Low Down
TTITLE13=You Say We're Trough
TTITLE14=The Jitter Jump
TTITLE15=I Want To Swing
TTITLE16=Forget About Me
TTITLE17=She Loves Just Right
TTITLE18=This Ain't No Place For Me
TTITLE19=Hard Road Blues
TTITLE20=Noonday Hour Blues
TTITLE21=Poor Little Fellow Blues
EXTD=Document DOCD-5211
EXTT0=
EXTT1=
EXTT2=
EXTT3=
EXTT4=
EXTT5=
EXTT6=
EXTT7=
EXTT8=
EXTT9=
EXTT10=
EXTT11=
EXTT12=
EXTT13=
EXTT14=
EXTT15=
EXTT16=
EXTT17=
EXTT18=
EXTT19=
EXTT20=
EXTT21=
PLAYORDER=
